<?xml version="1.0" encoding="utf-8"?>
<!-- Generator: Adobe Illustrator 16.0.0, SVG Export Plug-In . SVG Version: 6.00 Build 0)  -->
<!DOCTYPE svg PUBLIC "-//W3C//DTD SVG 1.1//EN" "http://www.w3.org/Graphics/SVG/1.1/DTD/svg11.dtd">
<svg version="1.1" id="Capa_1" xmlns="http://www.w3.org/2000/svg" xmlns:xlink="http://www.w3.org/1999/xlink" x="0px" y="0px"
	 width="30px" height="21px" viewBox="0 0 30 21" enable-background="new 0 0 30 21" xml:space="preserve">
<g>
	<path d="M30,16.628C30,17.386,29.386,18,28.628,18H1.372C0.614,18,0,17.386,0,16.628v-0.256C0,15.614,0.614,15,1.372,15h27.256
		C29.386,15,30,15.614,30,16.372V16.628z"/>
	<path d="M30,4.628C30,5.386,29.386,6,28.628,6H1.372C0.614,6,0,5.386,0,4.628V4.372C0,3.614,0.614,3,1.372,3h27.256
		C29.386,3,30,3.614,30,4.372V4.628z"/>
	<path d="M30,10.628C30,11.386,29.386,12,28.628,12H1.372C0.614,12,0,11.386,0,10.628v-0.256C0,9.614,0.614,9,1.372,9h27.256
		C29.386,9,30,9.614,30,10.372V10.628z"/>
</g>
</svg>
